<svg width="536" height="536" viewBox="0 0 536 536" fill="none" xmlns="http://www.w3.org/2000/svg">
<path d="M267.773 0.0039978C196.752 0.0039978 128.64 28.212 78.4267 78.4307C28.2133 128.649 0 196.759 0 267.777C0 338.796 28.2133 406.897 78.4267 457.124C128.645 507.343 196.755 535.551 267.773 535.551C338.789 535.551 406.893 507.343 457.12 457.124C507.333 406.905 535.547 338.796 535.547 267.777C535.474 196.783 507.24 128.711 457.036 78.5107C406.833 28.308 338.771 0.0733333 267.769 0L267.773 0.0039978ZM267.773 507.551V507.545C204.18 507.545 143.189 482.285 98.2267 437.321C53.2573 392.352 27.9973 331.368 27.9973 267.775C27.9973 204.181 53.2573 143.196 98.2267 98.2281C143.191 53.2641 204.18 28.0041 267.773 28.0041C331.361 28.0041 392.352 53.2641 437.32 98.2281C482.289 143.197 507.549 204.181 507.549 267.775C507.476 331.343 482.189 392.291 437.243 437.241C392.289 482.189 331.347 507.476 267.776 507.548L267.773 507.551Z" fill="black"/>
<path d="M397.32 258.441H276.549V137.671C276.549 129.936 270.284 123.671 262.549 123.671C254.815 123.671 248.549 129.936 248.549 137.671V258.441H137.112C129.378 258.441 123.112 264.707 123.112 272.441C123.112 280.176 129.378 286.441 137.112 286.441H248.549V397.879C248.549 405.613 254.815 411.879 262.549 411.879C270.284 411.879 276.549 405.613 276.549 397.879V286.441H397.32C405.054 286.441 411.32 280.176 411.32 272.441C411.32 264.707 405.054 258.441 397.32 258.441Z" fill="black"/>
</svg>
